<svg id="레이어_2" data-name="레이어 2" xmlns="http://www.w3.org/2000/svg" viewBox="0 0 66 81"><defs><style>.cls-1{fill:#040001;}.cls-2{fill:#f5f7f8;}</style></defs><title>logo2</title><path class="cls-1" d="M75.79,58.89c-3.69-1.72-5.92-3.91-5.92-6.3,0-5.53,11.85-10,26.46-10A58.12,58.12,0,0,1,113,44.81c-4.85-2.26-12.25-3.7-20.54-3.7-14.61,0-26.46,4.48-26.46,10C66,54.26,69.82,57.06,75.79,58.89Z" transform="translate(-66 -10)"/><path class="cls-1" d="M99.75,10h0c3.37,19.57,12.53,34.87,24.25,40.5h0C112.28,56.13,103.12,71.43,99.75,91h0C96.38,71.43,87.22,56.13,75.5,50.5h0C87.22,44.87,96.38,29.57,99.75,10Z" transform="translate(-66 -10)"/><path class="cls-2" d="M115.75,19.78h0c1,5.85,3.75,10.43,7.25,12.11h0c-3.5,1.68-6.24,6.26-7.25,12.11h0c-1-5.85-3.75-10.43-7.25-12.11h0c3.5-1.68,6.24-6.26,7.25-12.11Z" transform="translate(-66 -10)"/><path class="cls-2" d="M118.79,40.59c5,2.75,8,6.25,8,10.07,0,8.84-16,16-35.7,16a67,67,0,0,1-22.49-3.58C75.13,66.69,85.11,69,96.3,69,116,69,132,61.84,132,53,132,48,126.84,43.52,118.79,40.59Z" transform="translate(-66 -10)"/></svg>